<svg width="72" height="21" viewBox="0 0 72 21" fill="none" xmlns="http://www.w3.org/2000/svg">
<path d="M26.3423 8.6543L24.4785 10.5181L22.6147 12.3818V19.4901H26.1699V14.983C26.1699 12.5121 26.212 10.0411 26.2561 9.56415L26.3423 8.6543Z" fill="white"/>
<path d="M13.9875 0.644043V12.0009L15.8512 10.1371L17.7169 8.27338V0.644043H13.9875Z" fill="white"/>
<path d="M31.5008 0.243566C29.7673 0.243566 27.9457 0.894825 26.7753 1.93493L26.17 2.45403V0.643899H22.6149V5.32532L17.4221 10.4741C11.3442 16.5424 11.6048 16.37 9.35024 16.37C8.13582 16.37 7.91938 16.3259 7.22597 16.0233C5.75106 15.3298 4.97146 14.2016 4.75501 12.4241C4.66881 11.905 4.62476 9.04326 4.62476 6.0532V0.643899H0.985352L1.02941 6.84238C1.07155 13.8224 1.1156 14.0388 2.02545 15.9026C3.10961 18.113 5.14768 19.4998 7.74698 19.8906C9.8291 20.1932 11.8231 19.9347 13.4264 19.111C14.5105 18.59 14.5967 18.5038 21.4465 11.61C29.1179 3.93852 29.0317 3.98066 30.6791 3.89446C31.8073 3.80827 32.2823 3.93852 33.0198 4.37141C33.8013 4.89242 34.2342 5.75822 34.4066 7.18908C34.4947 7.79629 34.5368 10.7863 34.5368 13.9086V19.5439H38.09L38.1341 14.2553C38.1762 9.92055 38.2203 8.79233 38.3927 8.01274C38.9577 5.49772 40.5169 4.06877 42.7293 3.93852C43.4649 3.89446 43.8556 3.93852 44.2885 4.11091C45.9358 4.71812 46.4128 5.88847 46.4128 9.18309V10.658L48.2344 8.83639L50.0541 7.01669L49.8377 5.88847C49.3166 3.02867 47.4529 0.946544 44.8957 0.42745C43.8556 0.211001 42.034 0.339339 41.038 0.68604C39.9538 1.06914 38.3927 2.1169 37.7433 2.94055C37.5613 3.17574 37.358 3.39374 37.1361 3.59182C37.094 3.59182 36.9637 3.41751 36.8756 3.20872C36.4427 2.15138 34.6613 0.850771 33.0619 0.452352C32.5636 0.267042 32.0307 0.193159 31.5008 0.235902V0.243566Z" fill="white"/>
<path d="M69.8044 13.2668L69.1723 12.5964L69.0957 12.5141C69.0901 12.5237 69.0856 12.534 69.0823 12.5447C69.0344 12.6443 68.9865 12.7362 68.9348 12.8339C68.9348 12.8569 68.9176 12.8684 68.908 12.8914C68.6397 13.3783 68.3234 13.8371 67.9637 14.261C66.6409 15.6075 64.8559 16.4011 62.97 16.481C62.5111 16.4759 62.0542 16.4187 61.6081 16.3105C58.6602 15.575 56.7964 13.1462 56.7964 10.068V9.37842L56.7792 9.39566L56.7064 9.46653L53.9137 12.1233L53.7662 12.2708C54.1518 13.8851 54.9414 15.3748 56.0609 16.6001C57.1803 17.8254 58.5928 18.7461 60.1658 19.2757C60.3688 19.3446 60.5718 19.4098 60.7806 19.4672C61.6312 19.7039 62.5104 19.8219 63.3933 19.8178C65.1195 19.8177 66.8151 19.3618 68.3085 18.4961C68.3231 18.4839 68.3391 18.4736 68.3563 18.4654C68.9605 18.108 69.5255 17.6882 70.042 17.2127C70.5157 16.7778 70.9432 16.2951 71.3177 15.7723C71.4345 15.6133 71.5456 15.4524 71.6548 15.2838C71.6586 15.2727 71.6645 15.2623 71.672 15.2532L69.8044 13.2668Z" fill="#0D6EFD"/>
<path d="M55.1358 8.93817L55.8369 8.2352C56.2793 7.79272 56.6701 7.41154 57.013 7.0725L57.4152 6.67408C59.21 4.91951 59.595 4.64943 60.2597 4.33337C61.114 3.91896 62.0494 3.69853 62.9988 3.68786C63.1345 3.6753 63.2706 3.66954 63.4068 3.67061C64.2593 3.6711 65.1029 3.84449 65.8865 4.18031C66.6701 4.51613 67.3774 5.0074 67.9657 5.6244C67.9829 5.64739 68.0097 5.67229 68.0308 5.69527C68.0519 5.71826 68.1189 5.79488 68.1611 5.84085C68.2492 5.94237 68.3392 6.05347 68.4388 6.18372L68.4829 6.23544C68.5212 6.2929 68.5652 6.3542 68.6074 6.41358C68.6495 6.47296 68.6859 6.52659 68.7242 6.58789C68.7625 6.64918 68.7855 6.68366 68.8123 6.72963C68.8391 6.7756 68.8889 6.85988 68.9292 6.92118C68.9483 6.95532 68.9656 6.9905 68.9809 7.02653C69.0153 7.09166 69.0498 7.15487 69.0805 7.21808L69.2625 7.02653L69.2931 6.99588L71.5419 4.60729L71.5648 4.5843C71.1233 3.91823 70.6023 3.30844 70.0133 2.76843C68.7034 1.5701 67.0903 0.753314 65.3491 0.406648C65.2659 0.384824 65.1814 0.367556 65.0963 0.354926V0.354926C65.0312 0.341518 64.966 0.33194 64.9047 0.324278C64.3875 0.269825 63.8674 0.248073 63.3475 0.259152C62.8245 0.259152 62.2997 0.284053 61.8706 0.324278C60.805 0.49371 59.7751 0.839397 58.8231 1.34715C58.7855 1.36538 58.7491 1.38584 58.7139 1.40844C58.3818 1.59756 58.0619 1.8074 57.7562 2.03671L56.9766 2.64392L56.559 3.00212L53.2797 5.85043L51.121 7.95745L50.2284 8.829V8.78877L47.495 11.4953L46.5066 12.4703V19.4925H50.2341V13.9088L50.2514 13.8916L51.1267 12.9511L53.6168 10.461L54.7661 9.31169L55.1358 8.93817Z" fill="#0D6EFD"/>
</svg>
