<svg width="136" height="26" viewBox="0 0 136 26" fill="none" xmlns="http://www.w3.org/2000/svg">
<path d="M90.0233 3.40636V8.74958C90.0233 9.17884 89.9574 9.57799 89.8256 9.947C89.6976 10.316 89.4999 10.6361 89.2326 10.9072C88.969 11.1783 88.6376 11.3911 88.2385 11.5454C87.8394 11.6998 87.3706 11.777 86.8321 11.777C86.3237 11.777 85.8738 11.7055 85.4822 11.5624C85.0943 11.4155 84.7686 11.2084 84.505 10.9411C84.2452 10.6737 84.0475 10.3537 83.912 9.98089C83.7764 9.60434 83.7086 9.18638 83.7086 8.72699V3.40636H85.4539V8.59708C85.4539 8.90208 85.484 9.16378 85.5443 9.38218C85.6045 9.59681 85.693 9.77379 85.8098 9.91311C85.9303 10.0487 86.079 10.1485 86.256 10.2125C86.4329 10.2765 86.64 10.3085 86.8773 10.3085C87.3706 10.3085 87.7264 10.1654 87.9448 9.87922C88.167 9.59305 88.278 9.1619 88.278 8.58578V3.40636H90.0233ZM99.021 11.6641H96.8012L93.5535 5.41713H93.5026C93.5252 5.70707 93.5441 5.99513 93.5591 6.28131C93.5742 6.52606 93.5855 6.784 93.593 7.05511C93.6043 7.32246 93.61 7.56345 93.61 7.77809V11.6641H92.0454V3.40636H94.2539L97.4959 9.59116H97.5298C97.5185 9.30499 97.5053 9.02258 97.4903 8.74393C97.4865 8.62344 97.4809 8.50106 97.4733 8.3768C97.4696 8.24877 97.4658 8.12263 97.462 7.99837C97.4583 7.87034 97.4545 7.74796 97.4507 7.63123C97.4507 7.5145 97.4507 7.40907 97.4507 7.31493V3.40636H99.021V11.6641ZM104.195 11.6641H100.439V10.67L101.444 10.2068V4.8636L100.439 4.40045V3.40636H104.195V4.40045L103.189 4.8636V10.2068L104.195 10.67V11.6641ZM111.905 11.6641H109.916L108.019 8.22994L107.363 8.71569V11.6641H105.612V3.40636H107.363V7.38271L108.052 6.21353L109.939 3.40636H111.882L109.244 7.12854L111.905 11.6641Z" fill="white"/>
<path d="M87.2726 16.0541C86.9375 16.0541 86.64 16.12 86.3802 16.2518C86.1242 16.3798 85.9077 16.5662 85.7307 16.8109C85.5575 17.0519 85.4257 17.3475 85.3353 17.6977C85.2449 18.0441 85.1998 18.4339 85.1998 18.8669C85.1998 19.3074 85.2393 19.6991 85.3184 20.0417C85.4012 20.3844 85.5255 20.6743 85.6911 20.9115C85.8606 21.145 86.0752 21.3239 86.335 21.4481C86.5986 21.5686 86.9112 21.6289 87.2726 21.6289C87.6078 21.6289 87.9429 21.5912 88.278 21.5159C88.6169 21.4406 88.9841 21.3333 89.3794 21.194V22.6625C89.1987 22.7378 89.0198 22.8018 88.8429 22.8545C88.6659 22.9072 88.4851 22.9506 88.3006 22.9844C88.1161 23.0183 87.926 23.0428 87.7302 23.0579C87.5381 23.0767 87.331 23.0861 87.1089 23.0861C86.4725 23.0861 85.9208 22.9844 85.4539 22.7811C84.987 22.5778 84.601 22.2916 84.296 21.9226C83.991 21.5536 83.7651 21.1092 83.6182 20.5896C83.4714 20.07 83.398 19.492 83.398 18.8556C83.398 18.2305 83.4827 17.6582 83.6521 17.1385C83.8216 16.6151 84.0701 16.1652 84.3977 15.7886C84.7253 15.4121 85.1301 15.1202 85.6121 14.9131C86.0941 14.7023 86.6476 14.5968 87.2726 14.5968C87.6831 14.5968 88.0935 14.6495 88.504 14.755C88.9182 14.8566 89.3135 14.9979 89.6901 15.1786L89.1253 16.6019C88.8165 16.4551 88.5058 16.3271 88.1933 16.2179C87.8808 16.1087 87.5739 16.0541 87.2726 16.0541ZM94.299 16.5398C94.3442 16.5398 94.3932 16.5417 94.4459 16.5455C94.5024 16.5455 94.5551 16.5492 94.604 16.5568C94.6568 16.5605 94.7038 16.5662 94.7452 16.5737C94.7904 16.5775 94.8243 16.5831 94.8469 16.5907V18.206C94.8168 18.1985 94.7754 18.191 94.7227 18.1835C94.6699 18.1759 94.6135 18.1703 94.5532 18.1665C94.4967 18.159 94.4402 18.1552 94.3838 18.1552C94.3273 18.1514 94.2802 18.1496 94.2426 18.1496C94.0204 18.1496 93.8152 18.1778 93.6269 18.2343C93.4424 18.2908 93.2824 18.383 93.1468 18.511C93.015 18.6353 92.9115 18.801 92.8361 19.0081C92.7646 19.2114 92.7288 19.4618 92.7288 19.7593V22.9731H91.0061V16.6584H92.3109L92.565 17.6073H92.6498C92.7401 17.4454 92.838 17.2986 92.9435 17.1668C93.0489 17.035 93.1656 16.9239 93.2937 16.8335C93.4254 16.7394 93.5723 16.6678 93.7342 16.6189C93.8999 16.5662 94.0882 16.5398 94.299 16.5398ZM98.586 17.7655C98.281 17.7655 98.0269 17.8728 97.8235 18.0874C97.624 18.3021 97.5091 18.6391 97.479 19.0985H99.6761C99.6724 18.9064 99.6479 18.7294 99.6027 18.5675C99.5575 18.4056 99.4898 18.2663 99.3994 18.1496C99.309 18.0291 99.196 17.9349 99.0605 17.8672C98.9249 17.7994 98.7668 17.7655 98.586 17.7655ZM98.8063 23.0861C98.3545 23.0861 97.9384 23.0202 97.5581 22.8884C97.1777 22.7566 96.8502 22.5589 96.5753 22.2954C96.3004 22.028 96.0858 21.6929 95.9314 21.29C95.7808 20.8833 95.7054 20.407 95.7054 19.861C95.7054 19.3074 95.7751 18.8236 95.9144 18.4094C96.0538 17.9952 96.2477 17.6506 96.4962 17.3758C96.7485 17.0971 97.0497 16.8881 97.3999 16.7488C97.7539 16.6095 98.1455 16.5398 98.5747 16.5398C98.9927 16.5398 99.3693 16.6038 99.7044 16.7319C100.043 16.8561 100.329 17.0406 100.563 17.2854C100.8 17.5301 100.981 17.8314 101.105 18.1891C101.233 18.5431 101.297 18.9497 101.297 19.4091V20.2451H97.4451C97.4526 20.486 97.4903 20.7044 97.5581 20.9002C97.6296 21.0923 97.7275 21.2561 97.8518 21.3916C97.9798 21.5234 98.1323 21.6251 98.3093 21.6966C98.49 21.7682 98.6952 21.804 98.9249 21.804C99.117 21.804 99.2977 21.7945 99.4672 21.7757C99.6404 21.7531 99.8079 21.7211 99.9699 21.6797C100.132 21.6383 100.292 21.5874 100.45 21.5272C100.608 21.4632 100.77 21.3898 100.936 21.3069V22.6399C100.785 22.719 100.633 22.7868 100.478 22.8432C100.328 22.896 100.168 22.9411 99.9981 22.9788C99.8286 23.0164 99.646 23.0428 99.4502 23.0579C99.2544 23.0767 99.0398 23.0861 98.8063 23.0861ZM106.42 22.9731L106.087 22.1146H106.036C105.912 22.2841 105.788 22.4309 105.663 22.5552C105.539 22.6757 105.403 22.7755 105.257 22.8545C105.11 22.9336 104.944 22.992 104.76 23.0296C104.579 23.0673 104.368 23.0861 104.127 23.0861C103.871 23.0861 103.634 23.0466 103.415 22.9675C103.197 22.8847 103.007 22.7623 102.845 22.6004C102.687 22.4347 102.562 22.2276 102.472 21.9791C102.382 21.7268 102.336 21.4293 102.336 21.0866C102.336 20.4164 102.551 19.9231 102.98 19.6068C103.41 19.2867 104.052 19.1098 104.906 19.0759L105.912 19.042V18.5675C105.912 18.3077 105.836 18.1157 105.686 17.9914C105.535 17.8672 105.324 17.805 105.053 17.805C104.782 17.805 104.517 17.8446 104.257 17.9236C104.001 18.0027 103.743 18.1081 103.483 18.2399L102.924 17.099C103.24 16.922 103.59 16.7827 103.974 16.681C104.359 16.5794 104.761 16.5285 105.183 16.5285C105.97 16.5285 106.573 16.713 106.991 17.082C107.412 17.4511 107.623 18.0121 107.623 18.7652V22.9731H106.42ZM105.912 20.0474L105.341 20.07C105.112 20.0775 104.918 20.1076 104.76 20.1603C104.601 20.213 104.473 20.2846 104.375 20.375C104.281 20.4616 104.212 20.567 104.166 20.6913C104.125 20.8118 104.104 20.9473 104.104 21.0979C104.104 21.3615 104.168 21.5498 104.296 21.6628C104.424 21.772 104.592 21.8266 104.799 21.8266C104.957 21.8266 105.104 21.8002 105.24 21.7475C105.375 21.691 105.492 21.61 105.59 21.5046C105.692 21.3954 105.771 21.2636 105.827 21.1092C105.884 20.9511 105.912 20.7703 105.912 20.567V20.0474ZM111.961 21.7136C112.13 21.7136 112.291 21.6948 112.441 21.6571C112.596 21.6195 112.752 21.5724 112.91 21.5159V22.798C112.748 22.8809 112.547 22.9487 112.306 23.0014C112.068 23.0579 111.809 23.0861 111.526 23.0861C111.251 23.0861 110.995 23.0541 110.758 22.9901C110.521 22.9261 110.316 22.815 110.142 22.6568C109.969 22.4949 109.832 22.2803 109.73 22.0129C109.632 21.7418 109.583 21.4029 109.583 20.9963V17.9519H108.758V17.2233L109.707 16.6471L110.204 15.3142H111.306V16.6584H112.842V17.9519H111.306V20.9963C111.306 21.241 111.366 21.4218 111.487 21.5385C111.607 21.6552 111.765 21.7136 111.961 21.7136ZM114.113 15.0261C114.113 14.8642 114.137 14.7305 114.186 14.6251C114.235 14.5159 114.301 14.4293 114.384 14.3653C114.471 14.2975 114.571 14.2504 114.683 14.224C114.8 14.1977 114.923 14.1845 115.051 14.1845C115.179 14.1845 115.299 14.1977 115.412 14.224C115.525 14.2504 115.623 14.2975 115.706 14.3653C115.792 14.4293 115.86 14.5159 115.909 14.6251C115.962 14.7305 115.988 14.8642 115.988 15.0261C115.988 15.1842 115.962 15.3179 115.909 15.4271C115.86 15.5363 115.792 15.6248 115.706 15.6926C115.623 15.7566 115.525 15.8037 115.412 15.8338C115.299 15.8601 115.179 15.8733 115.051 15.8733C114.923 15.8733 114.8 15.8601 114.683 15.8338C114.571 15.8037 114.471 15.7566 114.384 15.6926C114.301 15.6248 114.235 15.5363 114.186 15.4271C114.137 15.3179 114.113 15.1842 114.113 15.0261ZM115.909 22.9731H114.186V16.6584H115.909V22.9731ZM119.05 22.9731L116.819 16.6584H118.62L119.665 20.2563C119.729 20.471 119.784 20.695 119.829 20.9285C119.878 21.1582 119.908 21.3653 119.919 21.5498H119.953C119.965 21.3502 119.993 21.1394 120.038 20.9172C120.087 20.6913 120.143 20.471 120.207 20.2563L121.247 16.6584H123.054L120.823 22.9731H119.05ZM126.511 17.7655C126.206 17.7655 125.952 17.8728 125.748 18.0874C125.549 18.3021 125.434 18.6391 125.404 19.0985H127.601C127.597 18.9064 127.573 18.7294 127.528 18.5675C127.482 18.4056 127.415 18.2663 127.324 18.1496C127.234 18.0291 127.121 17.9349 126.985 17.8672C126.85 17.7994 126.692 17.7655 126.511 17.7655ZM126.731 23.0861C126.279 23.0861 125.863 23.0202 125.483 22.8884C125.103 22.7566 124.775 22.5589 124.5 22.2954C124.225 22.028 124.011 21.6929 123.856 21.29C123.706 20.8833 123.63 20.407 123.63 19.861C123.63 19.3074 123.7 18.8236 123.839 18.4094C123.979 17.9952 124.172 17.6506 124.421 17.3758C124.673 17.0971 124.975 16.8881 125.325 16.7488C125.679 16.6095 126.07 16.5398 126.5 16.5398C126.918 16.5398 127.294 16.6038 127.629 16.7319C127.968 16.8561 128.254 17.0406 128.488 17.2854C128.725 17.5301 128.906 17.8314 129.03 18.1891C129.158 18.5431 129.222 18.9497 129.222 19.4091V20.2451H125.37C125.377 20.486 125.415 20.7044 125.483 20.9002C125.554 21.0923 125.652 21.2561 125.777 21.3916C125.905 21.5234 126.057 21.6251 126.234 21.6966C126.415 21.7682 126.62 21.804 126.85 21.804C127.042 21.804 127.223 21.7945 127.392 21.7757C127.565 21.7531 127.733 21.7211 127.895 21.6797C128.057 21.6383 128.217 21.5874 128.375 21.5272C128.533 21.4632 128.695 21.3898 128.861 21.3069V22.6399C128.71 22.719 128.557 22.7868 128.403 22.8432C128.252 22.896 128.092 22.9411 127.923 22.9788C127.753 23.0164 127.571 23.0428 127.375 23.0579C127.179 23.0767 126.965 23.0861 126.731 23.0861ZM134.887 21.0979C134.887 21.4293 134.827 21.7192 134.706 21.9678C134.586 22.2163 134.415 22.4234 134.192 22.5891C133.97 22.7547 133.701 22.879 133.385 22.9618C133.068 23.0447 132.714 23.0861 132.323 23.0861C132.116 23.0861 131.924 23.0786 131.747 23.0635C131.57 23.0522 131.402 23.0315 131.244 23.0014C131.086 22.9713 130.933 22.9336 130.787 22.8884C130.64 22.8432 130.491 22.7868 130.34 22.719V21.2956C130.498 21.3747 130.664 21.4462 130.837 21.5103C131.014 21.5743 131.189 21.6308 131.363 21.6797C131.536 21.7249 131.703 21.7607 131.865 21.787C132.031 21.8134 132.184 21.8266 132.323 21.8266C132.477 21.8266 132.609 21.8134 132.718 21.787C132.827 21.7569 132.916 21.7174 132.984 21.6684C133.055 21.6157 133.106 21.5554 133.136 21.4877C133.17 21.4161 133.187 21.3408 133.187 21.2617C133.187 21.1827 133.174 21.113 133.148 21.0527C133.125 20.9887 133.07 20.9228 132.984 20.8551C132.897 20.7835 132.769 20.7044 132.6 20.6178C132.434 20.5275 132.21 20.4183 131.927 20.2902C131.653 20.166 131.414 20.0436 131.21 19.9231C131.011 19.7988 130.845 19.6614 130.713 19.5108C130.585 19.3602 130.489 19.1888 130.425 18.9968C130.361 18.801 130.329 18.5694 130.329 18.3021C130.329 18.0084 130.386 17.7523 130.498 17.5339C130.611 17.3117 130.771 17.1272 130.979 16.9804C131.186 16.8335 131.434 16.7243 131.724 16.6528C132.018 16.5775 132.344 16.5398 132.701 16.5398C133.078 16.5398 133.436 16.5831 133.774 16.6697C134.113 16.7563 134.462 16.8862 134.819 17.0595L134.3 18.2795C134.014 18.1439 133.741 18.0328 133.481 17.9462C133.221 17.8596 132.961 17.8163 132.701 17.8163C132.468 17.8163 132.298 17.8577 132.193 17.9406C132.091 18.0234 132.04 18.1364 132.04 18.2795C132.04 18.3548 132.054 18.4226 132.08 18.4828C132.106 18.5393 132.159 18.5995 132.238 18.6636C132.317 18.7238 132.428 18.7916 132.571 18.8669C132.714 18.9384 132.901 19.0269 133.131 19.1324C133.398 19.2491 133.639 19.3658 133.854 19.4825C134.068 19.5955 134.253 19.7254 134.407 19.8723C134.561 20.0191 134.68 20.1905 134.763 20.3863C134.846 20.5821 134.887 20.8193 134.887 21.0979Z" fill="white"/>
<path d="M77.3502 25.1763H78.375V2.14651H77.3502V25.1763Z" fill="white"/>
<path d="M26.3423 11.6543L24.4785 13.5181L22.6147 15.3818V22.4901H26.1699V17.983C26.1699 15.5121 26.212 13.0411 26.2561 12.5641L26.3423 11.6543Z" fill="white"/>
<path d="M13.9875 3.64404V15.0009L15.8512 13.1371L17.7169 11.2734V3.64404H13.9875Z" fill="white"/>
<path d="M31.5008 3.24357C29.7673 3.24357 27.9457 3.89482 26.7753 4.93493L26.17 5.45403V3.6439H22.6149V8.32532L17.4221 13.4741C11.3442 19.5424 11.6048 19.37 9.35023 19.37C8.13582 19.37 7.91937 19.3259 7.22597 19.0233C5.75106 18.3298 4.97146 17.2016 4.75501 15.4241C4.66881 14.905 4.62476 12.0433 4.62476 9.0532V3.6439H0.985352L1.02941 9.84238C1.07155 16.8224 1.1156 17.0388 2.02545 18.9026C3.10961 21.113 5.14768 22.4998 7.74698 22.8906C9.82911 23.1932 11.8231 22.9347 13.4264 22.111C14.5105 21.59 14.5967 21.5038 21.4465 14.61C29.1179 6.93852 29.0317 6.98066 30.6791 6.89446C31.8073 6.80827 32.2823 6.93852 33.0198 7.37141C33.8013 7.89242 34.2342 8.75822 34.4066 10.1891C34.4947 10.7963 34.5368 13.7863 34.5368 16.9086V22.5439H38.09L38.1341 17.2553C38.1762 12.9205 38.2203 11.7923 38.3927 11.0127C38.9577 8.49772 40.5169 7.06877 42.7293 6.93852C43.4649 6.89446 43.8556 6.93852 44.2885 7.11091C45.9358 7.71812 46.4128 8.88847 46.4128 12.1831V13.658L48.2344 11.8364L50.0541 10.0167L49.8377 8.88847C49.3166 6.02867 47.4529 3.94654 44.8957 3.42745C43.8556 3.211 42.034 3.33934 41.038 3.68604C39.9538 4.06914 38.3927 5.1169 37.7433 5.94055C37.5613 6.17574 37.358 6.39374 37.1361 6.59182C37.094 6.59182 36.9637 6.41751 36.8756 6.20872C36.4427 5.15138 34.6613 3.85077 33.0619 3.45235C32.5636 3.26704 32.0307 3.19316 31.5008 3.2359V3.24357Z" fill="white"/>
<path d="M69.8044 16.2668L69.1723 15.5964L69.0957 15.5141C69.0901 15.5237 69.0856 15.534 69.0823 15.5447C69.0344 15.6443 68.9865 15.7362 68.9348 15.8339C68.9348 15.8569 68.9176 15.8684 68.908 15.8914C68.6397 16.3783 68.3234 16.8371 67.9637 17.261C66.6409 18.6075 64.8559 19.4011 62.97 19.481C62.5111 19.4759 62.0542 19.4187 61.6081 19.3105C58.6602 18.575 56.7964 16.1462 56.7964 13.068V12.3784L56.7792 12.3957L56.7064 12.4665L53.9137 15.1233L53.7662 15.2708C54.1518 16.8851 54.9414 18.3748 56.0609 19.6001C57.1803 20.8254 58.5928 21.7461 60.1658 22.2757C60.3688 22.3446 60.5718 22.4098 60.7806 22.4672C61.6312 22.7039 62.5104 22.8219 63.3933 22.8178C65.1195 22.8177 66.8151 22.3618 68.3085 21.4961C68.3231 21.4839 68.3391 21.4736 68.3563 21.4654C68.9605 21.108 69.5255 20.6882 70.042 20.2127C70.5157 19.7778 70.9432 19.2951 71.3177 18.7723C71.4345 18.6133 71.5456 18.4524 71.6548 18.2838C71.6586 18.2727 71.6645 18.2623 71.672 18.2532L69.8044 16.2668Z" fill="#0D6EFD"/>
<path d="M55.1358 11.9382L55.8369 11.2352C56.2793 10.7927 56.6701 10.4115 57.013 10.0725L57.4152 9.67408C59.21 7.91951 59.595 7.64943 60.2597 7.33337C61.114 6.91896 62.0494 6.69853 62.9988 6.68786C63.1345 6.6753 63.2706 6.66954 63.4068 6.67061C64.2593 6.6711 65.1029 6.84449 65.8865 7.18031C66.6701 7.51613 67.3774 8.0074 67.9657 8.6244C67.9829 8.64739 68.0097 8.67229 68.0308 8.69527C68.0519 8.71826 68.1189 8.79488 68.1611 8.84085C68.2492 8.94237 68.3392 9.05347 68.4388 9.18372L68.4829 9.23544C68.5212 9.2929 68.5652 9.3542 68.6074 9.41358C68.6495 9.47296 68.6859 9.52659 68.7242 9.58789C68.7625 9.64918 68.7855 9.68366 68.8123 9.72963C68.8391 9.7756 68.8889 9.85988 68.9292 9.92118C68.9483 9.95532 68.9656 9.9905 68.9809 10.0265C69.0153 10.0917 69.0498 10.1549 69.0805 10.2181L69.2625 10.0265L69.2931 9.99588L71.5419 7.60729L71.5648 7.5843C71.1234 6.91823 70.6023 6.30844 70.0133 5.76843C68.7034 4.5701 67.0903 3.75331 65.3491 3.40665C65.2659 3.38482 65.1814 3.36756 65.0963 3.35493C65.0312 3.34152 64.966 3.33194 64.9047 3.32428C64.3875 3.26982 63.8674 3.24807 63.3475 3.25915C62.8245 3.25915 62.2997 3.28405 61.8706 3.32428C60.805 3.49371 59.7751 3.8394 58.8231 4.34715C58.7855 4.36538 58.7491 4.38584 58.7139 4.40844C58.3818 4.59756 58.0619 4.8074 57.7562 5.03671L56.9766 5.64392L56.559 6.00212L53.2797 8.85043L51.121 10.9574L50.2284 11.829V11.7888L47.495 14.4953L46.5066 15.4703V22.4925H50.2341V16.9088L50.2514 16.8916L51.1267 15.9511L53.6168 13.461L54.7661 12.3117L55.1358 11.9382Z" fill="#0D6EFD"/>
</svg>
