<svg width="128" height="24" viewBox="0 0 128 24" fill="none" xmlns="http://www.w3.org/2000/svg">
<path d="M84.294 2.50075V7.5393C84.294 7.94409 84.2319 8.32047 84.1076 8.66845C83.9869 9.01642 83.8005 9.31824 83.5484 9.57389C83.2998 9.82955 82.9873 10.0302 82.611 10.1757C82.2346 10.3213 81.7925 10.3941 81.2847 10.3941C80.8054 10.3941 80.3811 10.3267 80.0118 10.1917C79.6461 10.0532 79.3389 9.85795 79.0904 9.60585C78.8454 9.35374 78.6589 9.05193 78.5311 8.7004C78.4033 8.34532 78.3394 7.95119 78.3394 7.51799V2.50075H79.9852V7.39549C79.9852 7.68311 80.0136 7.92988 80.0704 8.13583C80.1272 8.33822 80.2106 8.50511 80.3207 8.63649C80.4343 8.76432 80.5746 8.85841 80.7415 8.91877C80.9084 8.97914 81.1037 9.00932 81.3274 9.00932C81.7925 9.00932 82.1281 8.87439 82.334 8.60453C82.5435 8.33467 82.6482 7.92811 82.6482 7.38484V2.50075H84.294ZM92.7786 10.2876H90.6854L87.6229 4.39686H87.5749C87.5962 4.67027 87.614 4.94191 87.6282 5.21177C87.6424 5.44257 87.6531 5.6858 87.6602 5.94145C87.6708 6.19356 87.6761 6.42081 87.6761 6.6232V10.2876H86.2008V2.50075H88.2833L91.3405 8.3329H91.3725C91.3618 8.06304 91.3494 7.79673 91.3352 7.53397C91.3317 7.42035 91.3263 7.30495 91.3192 7.18777C91.3157 7.06705 91.3121 6.9481 91.3086 6.83092C91.305 6.71019 91.3015 6.59479 91.2979 6.48472C91.2979 6.37465 91.2979 6.27522 91.2979 6.18645V2.50075H92.7786V10.2876ZM97.6574 10.2876H94.1155V9.35019L95.0635 8.91345V3.8749L94.1155 3.43816V2.50075H97.6574V3.43816L96.7093 3.8749V8.91345L97.6574 9.35019V10.2876ZM104.928 10.2876H103.053L101.263 7.04929L100.645 7.50734V10.2876H98.9942V2.50075H100.645V6.25037L101.295 5.14785L103.074 2.50075H104.906L102.419 6.01069L104.928 10.2876Z" fill="#011528"/>
<path d="M81.7002 14.4271C81.3842 14.4271 81.1037 14.4893 80.8587 14.6135C80.6172 14.7343 80.413 14.91 80.2461 15.1408C80.0828 15.3681 79.9585 15.6468 79.8733 15.977C79.7881 16.3037 79.7455 16.6712 79.7455 17.0795C79.7455 17.495 79.7828 17.8643 79.8573 18.1874C79.9355 18.5105 80.0526 18.7839 80.2089 19.0076C80.3686 19.2278 80.571 19.3964 80.816 19.5136C81.0646 19.6272 81.3593 19.684 81.7002 19.684C82.0162 19.684 82.3322 19.6485 82.6482 19.5775C82.9678 19.5065 83.314 19.4053 83.6868 19.2739V20.6587C83.5164 20.7297 83.3477 20.7901 83.1809 20.8398C83.014 20.8895 82.8435 20.9304 82.6695 20.9623C82.4956 20.9943 82.3162 21.0173 82.1316 21.0316C81.9505 21.0493 81.7552 21.0582 81.5457 21.0582C80.9456 21.0582 80.4255 20.9623 79.9852 20.7706C79.5449 20.5788 79.1809 20.309 78.8933 19.961C78.6057 19.613 78.3926 19.194 78.2542 18.704C78.1157 18.214 78.0464 17.669 78.0464 17.0689C78.0464 16.4795 78.1263 15.9397 78.2861 15.4497C78.4459 14.9562 78.6803 14.5319 78.9892 14.1768C79.2981 13.8217 79.6798 13.5465 80.1343 13.3512C80.5888 13.1524 81.1108 13.053 81.7002 13.053C82.0872 13.053 82.4743 13.1027 82.8613 13.2021C83.2519 13.298 83.6247 13.4311 83.9798 13.6016L83.4472 14.9438C83.156 14.8053 82.8631 14.6845 82.5684 14.5816C82.2736 14.4786 81.9842 14.4271 81.7002 14.4271ZM88.3259 14.8852C88.3685 14.8852 88.4147 14.8869 88.4644 14.8905C88.5177 14.8905 88.5674 14.894 88.6135 14.9011C88.6633 14.9047 88.7076 14.91 88.7467 14.9171C88.7893 14.9207 88.8213 14.926 88.8426 14.9331V16.4564C88.8142 16.4493 88.7751 16.4422 88.7254 16.4351C88.6757 16.428 88.6224 16.4226 88.5656 16.4191C88.5123 16.412 88.4591 16.4084 88.4058 16.4084C88.3526 16.4049 88.3082 16.4031 88.2727 16.4031C88.0632 16.4031 87.8697 16.4298 87.6921 16.483C87.5181 16.5363 87.3672 16.6233 87.2394 16.744C87.1151 16.8612 87.0175 17.0174 86.9465 17.2127C86.879 17.4044 86.8453 17.6406 86.8453 17.9211V20.9517H85.2208V14.997H86.4511L86.6908 15.8918H86.7707C86.8559 15.7391 86.9482 15.6006 87.0477 15.4764C87.1471 15.3521 87.2571 15.2473 87.3779 15.1621C87.5022 15.0734 87.6406 15.0059 87.7933 14.9597C87.9495 14.91 88.1271 14.8852 88.3259 14.8852ZM92.3685 16.0409C92.0809 16.0409 91.8412 16.1421 91.6495 16.3445C91.4613 16.5469 91.353 16.8647 91.3246 17.2979H93.3964C93.3929 17.1168 93.3698 16.9499 93.3272 16.7973C93.2846 16.6446 93.2207 16.5132 93.1355 16.4031C93.0502 16.2895 92.9437 16.2007 92.8159 16.1368C92.6881 16.0729 92.5389 16.0409 92.3685 16.0409ZM92.5762 21.0582C92.1501 21.0582 91.7578 20.996 91.3991 20.8718C91.0405 20.7475 90.7316 20.5611 90.4724 20.3125C90.2132 20.0604 90.0108 19.7444 89.8652 19.3645C89.7232 18.981 89.6521 18.5318 89.6521 18.0169C89.6521 17.495 89.7178 17.0387 89.8492 16.6481C89.9806 16.2575 90.1635 15.9326 90.3978 15.6734C90.6357 15.4107 90.9198 15.2136 91.25 15.0822C91.5838 14.9509 91.953 14.8852 92.3578 14.8852C92.752 14.8852 93.107 14.9455 93.4231 15.0663C93.7426 15.1834 94.0125 15.3574 94.2326 15.5882C94.4563 15.819 94.6268 16.1031 94.744 16.4404C94.8647 16.7742 94.925 17.1577 94.925 17.5909V18.3791H91.2926C91.2997 18.6064 91.3352 18.8123 91.3991 18.997C91.4666 19.178 91.5589 19.3325 91.6761 19.4603C91.7968 19.5846 91.9406 19.6805 92.1075 19.7479C92.2779 19.8154 92.4715 19.8491 92.6881 19.8491C92.8691 19.8491 93.0396 19.8403 93.1994 19.8225C93.3627 19.8012 93.5207 19.771 93.6734 19.732C93.8261 19.6929 93.977 19.645 94.1261 19.5882C94.2753 19.5278 94.4279 19.4586 94.5842 19.3804V20.6374C94.4421 20.712 94.2983 20.7759 94.1527 20.8292C94.0107 20.8789 93.8598 20.9215 93.7 20.957C93.5402 20.9925 93.368 21.0173 93.1834 21.0316C92.9987 21.0493 92.7964 21.0582 92.5762 21.0582ZM99.7559 20.9517L99.4416 20.1421H99.3937C99.2765 20.3019 99.1593 20.4403 99.0422 20.5575C98.925 20.6711 98.7972 20.7652 98.6587 20.8398C98.5202 20.9144 98.364 20.9694 98.19 21.0049C98.0195 21.0404 97.8207 21.0582 97.5934 21.0582C97.352 21.0582 97.1283 21.0209 96.9224 20.9463C96.7164 20.8682 96.5371 20.7528 96.3844 20.6001C96.2353 20.4439 96.1181 20.2486 96.0329 20.0143C95.9477 19.7764 95.9051 19.4958 95.9051 19.1727C95.9051 18.5407 96.1074 18.0755 96.5122 17.7773C96.917 17.4755 97.5224 17.3086 98.3285 17.2766L99.2765 17.2447V16.7973C99.2765 16.5523 99.2055 16.3712 99.0635 16.254C98.9214 16.1368 98.7226 16.0782 98.4669 16.0782C98.2113 16.0782 97.961 16.1155 97.7159 16.1901C97.4745 16.2646 97.2313 16.3641 96.9863 16.4883L96.459 15.4125C96.7572 15.2456 97.0875 15.1142 97.4496 15.0183C97.8118 14.9224 98.1918 14.8745 98.5894 14.8745C99.3316 14.8745 99.8997 15.0485 100.294 15.3965C100.691 15.7445 100.89 16.2735 100.89 16.9837V20.9517H99.7559ZM99.2765 18.1927L98.7386 18.214C98.522 18.2211 98.3391 18.2495 98.19 18.2992C98.0408 18.3489 97.9201 18.4164 97.8278 18.5016C97.739 18.5833 97.6733 18.6827 97.6307 18.7999C97.5917 18.9135 97.5721 19.0413 97.5721 19.1834C97.5721 19.4319 97.6325 19.6095 97.7532 19.716C97.874 19.819 98.032 19.8704 98.2273 19.8704C98.3764 19.8704 98.5149 19.8456 98.6427 19.7959C98.7705 19.7426 98.8806 19.6663 98.9729 19.5669C99.0688 19.4639 99.1434 19.3396 99.1966 19.194C99.2499 19.0449 99.2765 18.8745 99.2765 18.6827V18.1927ZM104.981 19.7639C105.141 19.7639 105.292 19.7462 105.434 19.7107C105.579 19.6752 105.726 19.6308 105.876 19.5775V20.7865C105.723 20.8647 105.533 20.9286 105.306 20.9783C105.082 21.0316 104.837 21.0582 104.571 21.0582C104.312 21.0582 104.07 21.028 103.846 20.9676C103.623 20.9073 103.429 20.8025 103.266 20.6534C103.102 20.5007 102.973 20.2983 102.877 20.0462C102.785 19.7906 102.739 19.471 102.739 19.0875V16.2167H101.961V15.5296L102.856 14.9864L103.324 13.7294H104.363V14.997H105.812V16.2167H104.363V19.0875C104.363 19.3183 104.42 19.4887 104.533 19.5988C104.647 19.7089 104.796 19.7639 104.981 19.7639ZM107.01 13.4578C107.01 13.3051 107.033 13.179 107.079 13.0796C107.125 12.9766 107.188 12.895 107.266 12.8346C107.347 12.7707 107.442 12.7263 107.548 12.7014C107.658 12.6766 107.774 12.6642 107.894 12.6642C108.015 12.6642 108.129 12.6766 108.235 12.7014C108.342 12.7263 108.434 12.7707 108.512 12.8346C108.594 12.895 108.658 12.9766 108.704 13.0796C108.754 13.179 108.778 13.3051 108.778 13.4578C108.778 13.6069 108.754 13.7329 108.704 13.8359C108.658 13.9389 108.594 14.0223 108.512 14.0862C108.434 14.1466 108.342 14.191 108.235 14.2194C108.129 14.2442 108.015 14.2567 107.894 14.2567C107.774 14.2567 107.658 14.2442 107.548 14.2194C107.442 14.191 107.347 14.1466 107.266 14.0862C107.188 14.0223 107.125 13.9389 107.079 13.8359C107.033 13.7329 107.01 13.6069 107.01 13.4578ZM108.704 20.9517H107.079V14.997H108.704V20.9517ZM111.665 20.9517L109.561 14.997H111.26L112.246 18.3898C112.306 18.5922 112.358 18.8034 112.4 19.0236C112.446 19.2402 112.475 19.4355 112.485 19.6095H112.517C112.528 19.4213 112.555 19.2224 112.597 19.0129C112.643 18.7999 112.697 18.5922 112.757 18.3898L113.737 14.997H115.441L113.338 20.9517H111.665ZM118.701 16.0409C118.413 16.0409 118.174 16.1421 117.982 16.3445C117.794 16.5469 117.685 16.8647 117.657 17.2979H119.729C119.725 17.1168 119.702 16.9499 119.66 16.7973C119.617 16.6446 119.553 16.5132 119.468 16.4031C119.383 16.2895 119.276 16.2007 119.148 16.1368C119.021 16.0729 118.871 16.0409 118.701 16.0409ZM118.909 21.0582C118.483 21.0582 118.09 20.996 117.732 20.8718C117.373 20.7475 117.064 20.5611 116.805 20.3125C116.546 20.0604 116.343 19.7444 116.198 19.3645C116.056 18.981 115.985 18.5318 115.985 18.0169C115.985 17.495 116.05 17.0387 116.182 16.6481C116.313 16.2575 116.496 15.9326 116.73 15.6734C116.968 15.4107 117.252 15.2136 117.583 15.0822C117.916 14.9509 118.286 14.8852 118.69 14.8852C119.085 14.8852 119.44 14.9455 119.756 15.0663C120.075 15.1834 120.345 15.3574 120.565 15.5882C120.789 15.819 120.959 16.1031 121.076 16.4404C121.197 16.7742 121.258 17.1577 121.258 17.5909V18.3791H117.625C117.632 18.6064 117.668 18.8123 117.732 18.997C117.799 19.178 117.891 19.3325 118.009 19.4603C118.129 19.5846 118.273 19.6805 118.44 19.7479C118.61 19.8154 118.804 19.8491 119.021 19.8491C119.202 19.8491 119.372 19.8403 119.532 19.8225C119.695 19.8012 119.853 19.771 120.006 19.732C120.159 19.6929 120.31 19.645 120.459 19.5882C120.608 19.5278 120.76 19.4586 120.917 19.3804V20.6374C120.775 20.712 120.631 20.7759 120.485 20.8292C120.343 20.8789 120.192 20.9215 120.033 20.957C119.873 20.9925 119.701 21.0173 119.516 21.0316C119.331 21.0493 119.129 21.0582 118.909 21.0582ZM126.6 19.1834C126.6 19.4958 126.543 19.7693 126.429 20.0036C126.316 20.238 126.154 20.4332 125.945 20.5895C125.735 20.7457 125.481 20.8629 125.183 20.941C124.885 21.0191 124.551 21.0582 124.182 21.0582C123.986 21.0582 123.805 21.0511 123.638 21.0369C123.471 21.0262 123.313 21.0067 123.164 20.9783C123.015 20.9499 122.871 20.9144 122.733 20.8718C122.594 20.8292 122.454 20.7759 122.312 20.712V19.3698C122.461 19.4444 122.618 19.5118 122.781 19.5722C122.948 19.6325 123.113 19.6858 123.276 19.732C123.44 19.7746 123.598 19.8083 123.75 19.8332C123.906 19.858 124.05 19.8704 124.182 19.8704C124.327 19.8704 124.451 19.858 124.554 19.8332C124.657 19.8048 124.741 19.7675 124.805 19.7213C124.872 19.6716 124.92 19.6148 124.949 19.5509C124.981 19.4834 124.997 19.4124 124.997 19.3378C124.997 19.2633 124.984 19.1976 124.959 19.1408C124.938 19.0804 124.886 19.0183 124.805 18.9544C124.723 18.8869 124.602 18.8123 124.443 18.7307C124.286 18.6454 124.075 18.5425 123.809 18.4217C123.55 18.3046 123.324 18.1892 123.132 18.0755C122.944 17.9584 122.788 17.8288 122.664 17.6867C122.543 17.5447 122.452 17.3831 122.392 17.202C122.332 17.0174 122.302 16.799 122.302 16.5469C122.302 16.27 122.355 16.0285 122.461 15.8226C122.568 15.6131 122.719 15.4391 122.914 15.3006C123.109 15.1621 123.344 15.0592 123.617 14.9917C123.894 14.9207 124.201 14.8852 124.538 14.8852C124.894 14.8852 125.231 14.926 125.55 15.0077C125.87 15.0893 126.198 15.2118 126.536 15.3752L126.046 16.5256C125.776 16.3978 125.519 16.293 125.273 16.2114C125.028 16.1297 124.783 16.0889 124.538 16.0889C124.318 16.0889 124.159 16.1279 124.059 16.2061C123.963 16.2842 123.915 16.3907 123.915 16.5256C123.915 16.5966 123.928 16.6606 123.953 16.7174C123.977 16.7706 124.027 16.8274 124.102 16.8878C124.176 16.9446 124.281 17.0085 124.416 17.0795C124.551 17.147 124.727 17.2304 124.943 17.3299C125.195 17.4399 125.423 17.55 125.625 17.6601C125.827 17.7666 126.001 17.8891 126.147 18.0276C126.293 18.1661 126.404 18.3276 126.483 18.5123C126.561 18.6969 126.6 18.9206 126.6 19.1834Z" fill="#011528"/>
<path d="M72.3438 23.4022H73.3101V1.68562H72.3438V23.4022Z" fill="#011528"/>
<path d="M24.2443 10.6512L22.4868 12.4087L20.7293 14.1662V20.8692H24.0817V16.6191C24.0817 14.289 24.1214 11.959 24.163 11.5092L24.2443 10.6512Z" fill="#011528"/>
<path d="M12.594 3.09753V13.8068L14.3515 12.0493L16.1108 10.2918V3.09753H12.594Z" fill="#011528"/>
<path d="M29.1087 2.72C27.474 2.72 25.7563 3.33412 24.6527 4.31492L24.0819 4.80442V3.0975H20.7295V7.51199L15.8327 12.3672C10.1015 18.0894 10.3471 17.9269 8.22117 17.9269C7.076 17.9269 6.8719 17.8853 6.21803 17.5999C4.82722 16.9461 4.09207 15.8822 3.88796 14.206C3.80668 13.7165 3.76514 11.0179 3.76514 8.19837V3.0975H0.333252L0.374795 8.94254C0.414533 15.5245 0.456076 15.7286 1.31405 17.4861C2.33639 19.5705 4.25824 20.8783 6.70933 21.2468C8.67273 21.5321 10.553 21.2883 12.0649 20.5116C13.0872 20.0203 13.1685 19.939 19.6277 13.4383C26.8617 6.20426 26.7804 6.244 28.3338 6.16272C29.3977 6.08144 29.8457 6.20426 30.5411 6.61247C31.278 7.10378 31.6862 7.92021 31.8488 9.26948C31.9319 9.84206 31.9716 12.6616 31.9716 15.6058V20.9198H35.3222L35.3638 15.9328C35.4035 11.8452 35.445 10.7813 35.6076 10.0462C36.1405 7.67455 37.6107 6.32709 39.697 6.20426C40.3906 6.16272 40.759 6.20426 41.1673 6.36683C42.7206 6.93941 43.1704 8.04303 43.1704 11.1498V12.5406L44.8881 10.8229L46.6041 9.10691L46.4 8.04303C45.9087 5.34629 44.1512 3.38289 41.7398 2.89339C40.759 2.68929 39.0413 2.81031 38.102 3.13724C37.0797 3.49849 35.6076 4.48651 34.9953 5.2632C34.8236 5.48497 34.6319 5.69055 34.4227 5.87733C34.383 5.87733 34.2601 5.71296 34.1771 5.51608C33.7688 4.51903 32.089 3.29258 30.5808 2.91688C30.1109 2.74213 29.6084 2.67246 29.1087 2.71277V2.72Z" fill="#011528"/>
<path d="M65.2283 15.0008L64.6322 14.3686L64.56 14.2909C64.5547 14.3001 64.5504 14.3098 64.5473 14.3198C64.5022 14.4138 64.457 14.5005 64.4082 14.5926C64.4082 14.6143 64.392 14.6251 64.383 14.6468C64.13 15.1059 63.8317 15.5386 63.4925 15.9383C62.2451 17.208 60.5619 17.9563 58.7836 18.0317C58.3508 18.0269 57.9199 17.9729 57.4993 17.8709C54.7195 17.1773 52.962 14.887 52.962 11.9844V11.3341L52.9457 11.3504L52.8771 11.4172L50.2436 13.9225L50.1045 14.0616C50.4682 15.5838 51.2128 16.9886 52.2684 18.144C53.324 19.2995 54.656 20.1677 56.1392 20.667C56.3307 20.7321 56.5221 20.7935 56.719 20.8477C57.5211 21.0709 58.3502 21.1821 59.1827 21.1782C60.8105 21.1781 62.4093 20.7482 63.8176 19.9319C63.8314 19.9204 63.8465 19.9107 63.8628 19.903C64.4325 19.566 64.9653 19.17 65.4523 18.7217C65.899 18.3116 66.3021 17.8564 66.6552 17.3634C66.7654 17.2135 66.8702 17.0617 66.9731 16.9028C66.9768 16.8923 66.9823 16.8825 66.9894 16.8739L65.2283 15.0008Z" fill="#0D6EFD"/>
<path d="M51.396 10.9186L52.0571 10.2557C52.4743 9.83846 52.8428 9.47901 53.1661 9.15931L53.5455 8.78361C55.2379 7.12908 55.601 6.8744 56.2277 6.57636C57.0333 6.18558 57.9154 5.97772 58.8107 5.96766C58.9386 5.95582 59.067 5.95039 59.1954 5.9514C59.9993 5.95185 60.7948 6.11536 61.5337 6.43203C62.2726 6.7487 62.9396 7.21196 63.4943 7.79378C63.5106 7.81545 63.5358 7.83893 63.5557 7.86061C63.5756 7.88228 63.6388 7.95454 63.6785 7.99789C63.7616 8.09362 63.8465 8.19838 63.9405 8.32121L63.982 8.36998C64.0181 8.42416 64.0597 8.48196 64.0994 8.53796C64.1391 8.59395 64.1735 8.64453 64.2096 8.70232C64.2457 8.76013 64.2674 8.79264 64.2927 8.83599C64.318 8.87934 64.3649 8.95881 64.4029 9.01661C64.4209 9.04881 64.4372 9.08198 64.4516 9.11596C64.4841 9.17737 64.5166 9.23698 64.5455 9.29658L64.7171 9.11596L64.746 9.08706L66.8666 6.83466L66.8883 6.81298C66.4719 6.18489 65.9806 5.60988 65.4252 5.10065C64.1899 3.97065 62.6689 3.20044 61.027 2.87354C60.9484 2.85296 60.8688 2.83668 60.7885 2.82477C60.7271 2.81213 60.6657 2.80309 60.6079 2.79587C60.1202 2.74452 59.6297 2.72401 59.1394 2.73446C58.6463 2.73446 58.1514 2.75794 57.7468 2.79587C56.742 2.95564 55.7708 3.28162 54.8731 3.76041C54.8376 3.7776 54.8032 3.7969 54.7701 3.81821C54.4569 3.99655 54.1553 4.19442 53.867 4.41066L53.1318 4.98325L52.7381 5.32102L49.6457 8.00692L47.6101 9.9938L46.7684 10.8156V10.7777L44.1909 13.33L43.2588 14.2493V20.8711H46.7738V15.6058L46.7901 15.5896L47.6155 14.7027L49.9636 12.3546L51.0474 11.2708L51.396 10.9186Z" fill="#0D6EFD"/>
</svg>
